<?xml version="1.0" encoding="UTF-8"?>
<svg id="Layer_2" data-name="Layer 2" xmlns="http://www.w3.org/2000/svg" xmlns:xlink="http://www.w3.org/1999/xlink" viewBox="0 0 633.97 356.61">
  <defs>
    <style>
      .cls-1 {
        stroke: url(#linear-gradient-2);
      }

      .cls-1, .cls-2, .cls-3, .cls-4, .cls-5, .cls-6, .cls-7, .cls-8, .cls-9, .cls-10, .cls-11, .cls-12, .cls-13, .cls-14, .cls-15, .cls-16, .cls-17, .cls-18, .cls-19, .cls-20, .cls-21, .cls-22, .cls-23, .cls-24, .cls-25, .cls-26, .cls-27, .cls-28, .cls-29, .cls-30, .cls-31, .cls-32, .cls-33, .cls-34 {
        fill: none;
      }

      .cls-1, .cls-2, .cls-3, .cls-4, .cls-5, .cls-6, .cls-7, .cls-8, .cls-9, .cls-10, .cls-11, .cls-12, .cls-13, .cls-14, .cls-15, .cls-16, .cls-17, .cls-18, .cls-19, .cls-20, .cls-21, .cls-22, .cls-23, .cls-24, .cls-25, .cls-27, .cls-28, .cls-29, .cls-30, .cls-31, .cls-32, .cls-33, .cls-34 {
        stroke-miterlimit: 10;
      }

      .cls-2 {
        stroke: url(#linear-gradient-3);
      }

      .cls-3 {
        stroke: url(#linear-gradient-28);
      }

      .cls-4 {
        stroke: url(#linear-gradient-9);
      }

      .cls-5 {
        stroke: url(#linear-gradient-22);
      }

      .cls-6 {
        stroke: url(#linear-gradient-19);
      }

      .cls-7 {
        stroke: url(#linear-gradient-26);
      }

      .cls-8 {
        stroke: url(#linear-gradient-4);
      }

      .cls-9 {
        stroke: url(#linear-gradient-6);
      }

      .cls-10 {
        stroke: url(#linear-gradient-18);
      }

      .cls-11 {
        stroke: url(#linear-gradient-13);
      }

      .cls-12 {
        stroke: url(#linear-gradient-29);
      }

      .cls-13 {
        stroke: url(#linear-gradient-16);
      }

      .cls-14 {
        stroke: url(#linear-gradient-17);
      }

      .cls-15 {
        stroke: url(#linear-gradient-30);
      }

      .cls-16 {
        stroke: url(#linear-gradient-7);
      }

      .cls-17 {
        stroke: url(#linear-gradient-21);
      }

      .cls-18 {
        stroke: url(#linear-gradient-12);
      }

      .cls-19 {
        stroke: url(#linear-gradient-5);
      }

      .cls-20 {
        stroke: url(#linear-gradient-32);
      }

      .cls-35 {
        clip-path: url(#clippath);
      }

      .cls-21 {
        stroke: url(#linear-gradient-20);
      }

      .cls-22 {
        stroke: url(#linear-gradient-24);
      }

      .cls-23 {
        stroke: url(#linear-gradient-33);
      }

      .cls-24 {
        stroke: url(#linear-gradient-31);
      }

      .cls-25 {
        stroke: url(#linear-gradient);
      }

      .cls-27 {
        stroke: url(#linear-gradient-25);
      }

      .cls-28 {
        stroke: url(#linear-gradient-27);
      }

      .cls-29 {
        stroke: url(#linear-gradient-23);
      }

      .cls-30 {
        stroke: url(#linear-gradient-14);
      }

      .cls-31 {
        stroke: url(#linear-gradient-11);
      }

      .cls-32 {
        stroke: url(#linear-gradient-8);
      }

      .cls-33 {
        stroke: url(#linear-gradient-10);
      }

      .cls-34 {
        stroke: url(#linear-gradient-15);
      }
    </style>
    <clipPath id="clippath">
      <rect class="cls-26" width="633.97" height="356.61"/>
    </clipPath>
    <linearGradient id="linear-gradient" x1="-97.65" y1="199.08" x2="525.99" y2="199.08" gradientUnits="userSpaceOnUse">
      <stop offset="0" stop-color="#080b0e"/>
      <stop offset=".5" stop-color="#001d46"/>
      <stop offset="1" stop-color="#080a0c"/>
    </linearGradient>
    <linearGradient id="linear-gradient-2" x1="-96.45" y1="200.73" x2="532.65" y2="200.73" xlink:href="#linear-gradient"/>
    <linearGradient id="linear-gradient-3" x1="-95.28" y1="202.37" x2="539.33" y2="202.37" xlink:href="#linear-gradient"/>
    <linearGradient id="linear-gradient-4" x1="-94.13" y1="204.02" x2="546.03" y2="204.02" xlink:href="#linear-gradient"/>
    <linearGradient id="linear-gradient-5" x1="-93.02" y1="205.66" x2="552.76" y2="205.66" xlink:href="#linear-gradient"/>
    <linearGradient id="linear-gradient-6" x1="-91.95" y1="207.31" x2="559.53" y2="207.31" xlink:href="#linear-gradient"/>
    <linearGradient id="linear-gradient-7" x1="-90.93" y1="208.94" x2="566.33" y2="208.94" xlink:href="#linear-gradient"/>
    <linearGradient id="linear-gradient-8" x1="-89.97" y1="210.56" x2="573.17" y2="210.56" xlink:href="#linear-gradient"/>
    <linearGradient id="linear-gradient-9" x1="-89.06" y1="212.16" x2="580.05" y2="212.16" xlink:href="#linear-gradient"/>
    <linearGradient id="linear-gradient-10" x1="-88.86" y1="213.51" x2="587.11" y2="213.51" xlink:href="#linear-gradient"/>
    <linearGradient id="linear-gradient-11" x1="-87.4" y1="215.61" x2="594.27" y2="215.61" xlink:href="#linear-gradient"/>
    <linearGradient id="linear-gradient-12" x1="-87.74" y1="217.01" x2="601.44" y2="217.01" xlink:href="#linear-gradient"/>
    <linearGradient id="linear-gradient-13" x1="-86.6" y1="218.82" x2="608.61" y2="218.82" xlink:href="#linear-gradient"/>
    <linearGradient id="linear-gradient-14" x1="-85.73" y1="220.53" x2="615.77" y2="220.53" xlink:href="#linear-gradient"/>
    <linearGradient id="linear-gradient-15" x1="-84.93" y1="222.21" x2="622.94" y2="222.21" xlink:href="#linear-gradient"/>
    <linearGradient id="linear-gradient-16" x1="-84.17" y1="223.87" x2="630.1" y2="223.87" xlink:href="#linear-gradient"/>
    <linearGradient id="linear-gradient-17" x1="-83.43" y1="225.54" x2="637.27" y2="225.54" xlink:href="#linear-gradient"/>
    <linearGradient id="linear-gradient-18" x1="-86.89" y1="229.04" x2="642.15" y2="229.04" xlink:href="#linear-gradient"/>
    <linearGradient id="linear-gradient-19" x1="-90.35" y1="232.54" x2="647.03" y2="232.54" xlink:href="#linear-gradient"/>
    <linearGradient id="linear-gradient-20" x1="-93.81" y1="236.03" x2="651.91" y2="236.03" xlink:href="#linear-gradient"/>
    <linearGradient id="linear-gradient-21" x1="-97.28" y1="239.53" x2="656.78" y2="239.53" xlink:href="#linear-gradient"/>
    <linearGradient id="linear-gradient-22" x1="-100.74" y1="243.03" x2="661.66" y2="243.03" xlink:href="#linear-gradient"/>
    <linearGradient id="linear-gradient-23" x1="-104.2" y1="246.53" x2="666.54" y2="246.53" xlink:href="#linear-gradient"/>
    <linearGradient id="linear-gradient-24" x1="-107.66" y1="250.03" x2="671.41" y2="250.03" xlink:href="#linear-gradient"/>
    <linearGradient id="linear-gradient-25" x1="-111.12" y1="253.53" x2="676.29" y2="253.53" xlink:href="#linear-gradient"/>
    <linearGradient id="linear-gradient-26" x1="-114.58" y1="257.04" x2="681.16" y2="257.04" xlink:href="#linear-gradient"/>
    <linearGradient id="linear-gradient-27" x1="-118.04" y1="260.54" x2="686.03" y2="260.54" xlink:href="#linear-gradient"/>
    <linearGradient id="linear-gradient-28" x1="-121.5" y1="264.04" x2="690.9" y2="264.04" xlink:href="#linear-gradient"/>
    <linearGradient id="linear-gradient-29" x1="-124.96" y1="267.55" x2="695.77" y2="267.55" xlink:href="#linear-gradient"/>
    <linearGradient id="linear-gradient-30" x1="-128.43" y1="271.12" x2="700.65" y2="271.12" xlink:href="#linear-gradient"/>
    <linearGradient id="linear-gradient-31" x1="-131.91" y1="274.64" x2="705.54" y2="274.64" xlink:href="#linear-gradient"/>
    <linearGradient id="linear-gradient-32" x1="-135.42" y1="278.17" x2="710.46" y2="278.17" xlink:href="#linear-gradient"/>
    <linearGradient id="linear-gradient-33" x1="-139.12" y1="281.72" x2="715.56" y2="281.72" xlink:href="#linear-gradient"/>
  </defs>
  <g id="Layer_1-2" data-name="Layer 1">
    <g class="cls-35">
      <g>
        <path class="cls-25" d="m-97.43,28.08C-47.05,3.45,16.35,7.9,62.79,39.34c29.78,20.16,51.85,50.93,62.74,85.09,8.56,26.86-3.6,75.2,29.75,85.34,12.67,3.85,26.38-.65,38.07-6.88,11.69-6.22,22.57-14.25,35.2-18.23,12.63-3.97,28.11-2.87,36.86,7.06,12.14,13.77,5.3,35.31-3.37,51.49-8.67,16.18-18.91,34.92-11.65,51.79,6.39,14.85,24.59,21.48,40.69,20.02,16.1-1.46,30.86-9.13,45.66-15.61,26.17-11.47,54.25-19.66,82.82-19.53,28.57.13,57.77,9.21,78.68,28.68,20.91,19.47,32.23,50.03,25.12,77.7"/>
        <path class="cls-1" d="m-96.22,28.18c1.36-.7,2.73-1.38,4.11-2.03,25.84-9.93,56.25-12.47,85.64-8.36,23.81,3.33,46.95,11.14,67.06,23.62,4.8,2.98,9.41,6.22,13.82,9.68,22.87,17.98,39.41,42.52,50.43,69.2,10.73,26,1.18,74.93,30.89,87.36,11.28,4.72,23.16,1.47,33.66-3.15,10.52-4.67,20.86-10.93,33.21-13.52,12.33-2.63,27.69-.64,36.93,9.28,12.84,13.78,8.15,34.24,1.73,49.3-2.73,6.44-5.73,13.24-7.62,20.1-2.58,9.2-3.16,18.53,1.62,27.24,7.38,13.39,25.79,18.9,42.27,17.05,15.98-1.8,30.75-9.26,45.57-15.6,22.29-9.54,45.91-16.68,70.02-18.34,4.23-.29,8.48-.41,12.73-.35,28.48.43,57.44,9.75,78.33,29.14,20.89,19.39,32.49,49.52,26.31,77.12"/>
        <path class="cls-2" d="m-95.04,28.36c1.18-.65,2.36-1.27,3.56-1.87,24.29-7.63,54.25-8.78,83.3-4.66,23.54,3.34,46.47,10.4,66.54,21.72,4.79,2.7,9.4,5.64,13.82,8.79,22.93,16.34,39.22,39.23,51.93,63.88,13.04,25.3,5.98,74.66,32.04,89.39,9.9,5.6,19.94,3.64,29.25.58,9.37-3.08,19.15-7.56,31.22-8.82,12.04-1.25,27.27,1.59,36.99,11.5,13.54,13.78,10.97,33.16,6.83,47.11-1.76,5.95-3.73,12.18-4.76,18.4-1.38,8.36-1.01,16.73,4.4,24.5,8.36,11.92,26.99,16.34,43.85,14.07,15.87-2.13,30.64-9.39,45.47-15.58,22.32-9.32,45.92-16.22,69.98-17.63,4.22-.25,8.46-.32,12.7-.22,28.39.73,57.11,10.28,77.99,29.61,20.87,19.32,32.75,49.02,27.5,76.53"/>
        <path class="cls-8" d="m-93.87,28.66c.99-.59,1.99-1.16,3-1.71,22.73-5.33,52.25-5.09,80.97-.95,23.26,3.36,45.98,9.67,66.02,19.83,4.78,2.43,9.39,5.07,13.82,7.9,23,14.71,39.24,35.95,53.44,58.56,15.5,24.7,10.8,74.4,33.19,91.42,8.53,6.48,16.71,5.79,24.84,4.3,8.2-1.5,17.43-4.22,29.23-4.12,11.74.1,26.86,3.81,37.06,13.71,14.25,13.79,13.8,32.09,11.93,44.92-.8,5.47-1.74,11.12-1.89,16.7-.2,7.5,1.13,14.95,7.18,21.75,9.32,10.48,28.18,13.78,45.43,11.1,15.75-2.45,30.53-9.52,45.38-15.57,22.35-9.11,45.93-15.76,69.95-16.92,4.21-.2,8.44-.23,12.66-.08,28.29,1.02,56.78,10.82,77.64,30.07,20.86,19.24,33.01,48.51,28.7,75.95"/>
        <path class="cls-19" d="m-92.74,29.22c.81-.54,1.62-1.06,2.45-1.56,21.18-3.02,50.24-1.41,78.63,2.76,22.99,3.37,45.5,8.94,65.5,17.94,4.77,2.15,9.38,4.49,13.82,7.01,23.07,13.07,39.48,32.65,54.94,53.25,18.13,24.15,15.63,74.18,34.34,93.44,7.16,7.37,13.47,7.95,20.43,8.03,7.03.08,15.71-.88,27.24.58,11.44,1.45,26.44,6.04,37.12,15.93,14.95,13.79,16.63,31.03,17.03,42.73.17,5,.25,10.05.97,14.99.97,6.64,3.28,13.16,9.96,19.01,10.31,9.03,29.38,11.23,47.01,8.12,15.63-2.75,30.42-9.65,45.28-15.55,22.38-8.89,45.94-15.3,69.91-16.2,4.21-.16,8.42-.15,12.63.05,28.2,1.32,56.46,11.36,77.3,30.53,20.84,19.17,33.27,48,29.89,75.37"/>
        <path class="cls-9" d="m-91.64,30.28c.62-.48,1.25-.95,1.89-1.4,19.63-.72,48.24,2.28,76.29,6.46,22.71,3.39,45.02,8.2,64.99,16.04,4.76,1.87,9.37,3.91,13.82,6.12,23.13,11.43,39.91,29.3,56.44,47.93,20.94,23.61,20.45,73.98,35.48,95.47,5.79,8.28,10.21,10.1,16.02,11.76,5.83,1.66,13.98,2.45,25.25,5.29,11.13,2.8,26.02,8.27,37.19,18.15,15.65,13.79,19.46,29.98,22.14,40.54,1.15,4.53,2.23,8.97,3.84,13.29,2.15,5.76,5.43,11.37,12.74,16.27,11.3,7.58,30.57,8.68,48.59,5.15,15.52-3.05,30.32-9.78,45.18-15.53,22.41-8.67,45.95-14.84,69.87-15.49,4.2-.12,8.4-.06,12.59.18,28.11,1.62,56.13,11.9,76.95,31,20.82,19.1,33.53,47.5,31.09,74.78"/>
        <path class="cls-16" d="m-90.58,32.02c.44-.43.88-.84,1.33-1.24,18.08,1.58,46.24,5.96,73.95,10.17,22.44,3.4,44.54,7.47,64.47,14.15,4.75,1.6,9.36,3.34,13.82,5.23,23.2,9.79,40.51,25.85,57.95,42.61,23.93,23,25.26,73.82,36.63,97.5,4.42,9.2,6.94,12.22,11.61,15.48,4.61,3.21,12.26,5.78,23.26,9.99,10.82,4.14,25.6,10.5,37.25,20.37,16.35,13.8,22.31,28.93,27.24,38.35,2.12,4.06,4.2,7.89,6.7,11.59,3.3,4.88,7.59,9.58,15.52,13.53,12.29,6.12,31.77,6.15,50.17,2.17,15.4-3.33,30.21-9.91,45.09-15.52,22.44-8.46,45.96-14.38,69.84-14.78,4.19-.07,8.38.03,12.56.32,28.01,1.92,55.8,12.43,76.61,31.46,20.8,19.02,33.79,46.99,32.28,74.2"/>
        <path class="cls-32" d="m-89.55,33.81c.25-.38.51-.74.78-1.08,16.53,3.89,44.24,9.65,71.61,13.87,22.16,3.42,44.06,6.74,63.95,12.26,4.74,1.32,9.35,2.76,13.82,4.34,23.27,8.15,41.25,22.31,59.45,37.29,27.07,22.28,30.04,73.67,37.78,99.53,3.03,10.12,3.67,14.31,7.2,19.21,3.41,4.73,10.54,9.1,21.27,14.69,10.51,5.48,25.19,12.73,37.32,22.59,17.05,13.8,25.17,27.88,32.34,36.16,3.1,3.59,6.16,6.81,9.57,9.89,4.45,4.01,9.75,7.78,18.3,10.78,13.28,4.66,32.97,3.63,51.75-.8,15.29-3.61,30.1-10.04,44.99-15.5,22.47-8.24,45.97-13.91,69.8-14.07,4.18-.03,8.36.12,12.52.45,27.92,2.22,55.48,12.97,76.26,31.93,20.78,18.95,34.05,46.49,33.48,73.62"/>
        <path class="cls-4" d="m-88.57,35.61c.07-.32.14-.63.22-.93,14.97,6.19,42.23,13.33,69.28,17.58,21.89,3.44,43.58,6,63.43,10.36,4.73,1.05,9.34,2.19,13.83,3.45,23.33,6.52,42.06,18.65,60.96,31.98,30.34,21.4,34.79,73.53,38.92,101.55,1.63,11.04.44,16.4,2.79,22.93,2.24,6.24,8.81,12.42,19.28,19.39,10.21,6.81,24.77,14.96,37.38,24.8,17.76,13.81,28.04,26.82,37.44,33.97,4.09,3.11,8.11,5.74,12.43,8.18,5.58,3.15,11.91,5.99,21.08,8.04,14.28,3.2,34.17,1.12,53.33-3.78,15.18-3.88,29.99-10.17,44.9-15.49,22.5-8.03,45.98-13.45,69.77-13.36,4.17.02,8.34.21,12.49.58,27.83,2.52,55.15,13.51,75.92,32.39,20.76,18.87,34.32,45.98,34.67,73.03"/>
        <path class="cls-33" d="m-87.43,37.4c-.12-.27-.23-.53-.33-.77,13.42,8.49,40.23,17.02,66.94,21.29,21.61,3.45,43.09,5.27,62.91,8.47,4.72.77,9.33,1.61,13.83,2.55,23.4,4.88,42.93,14.89,62.46,26.66,33.71,20.32,39.51,73.37,40.07,103.58.22,11.96-2.77,18.49-1.62,26.66,1.09,7.76,7.1,15.73,17.29,24.1,9.91,8.14,24.35,17.19,37.45,27.02,18.46,13.81,30.91,25.74,42.54,31.78,5.07,2.63,10.06,4.69,15.3,6.48,6.71,2.3,14.07,4.19,23.86,5.3,15.27,1.73,35.37-1.38,54.91-6.75,15.07-4.14,29.88-10.3,44.8-15.47,22.53-7.81,45.99-12.99,69.73-12.65,4.16.06,8.32.3,12.45.72,27.73,2.81,54.82,14.05,75.58,32.86,20.74,18.8,34.58,45.47,35.86,72.45"/>
        <path class="cls-31" d="m-86.17,39.19c-.3-.21-.6-.42-.89-.61,11.87,10.8,38.23,20.7,64.6,24.99,21.34,3.47,42.61,4.54,62.39,6.58,4.71.49,9.32,1.03,13.83,1.66,23.46,3.24,43.82,11.03,63.96,21.34,37.15,19.02,44.22,73.21,41.22,105.61-1.19,12.88-5.97,20.6-6.03,30.39-.05,9.3,5.38,19.04,15.3,28.8,9.61,9.46,23.93,19.42,37.51,29.24,19.16,13.82,33.77,24.67,47.64,29.59,6.06,2.15,12.02,3.63,18.16,4.78,7.85,1.46,16.23,2.39,26.65,2.56,16.26.26,36.58-3.87,56.49-9.73,14.96-4.4,29.78-10.43,44.71-15.46,22.56-7.59,46-12.53,69.7-11.94,4.15.1,8.3.39,12.42.85,27.64,3.11,54.49,14.58,75.23,33.32,20.72,18.72,34.84,44.97,37.06,71.87"/>
        <path class="cls-18" d="m-84.92,40.98c-.48-.16-.97-.31-1.44-.46,10.32,13.1,36.23,24.39,62.26,28.7,21.06,3.48,42.13,3.8,61.87,4.68,4.69.22,9.31.46,13.83.77,23.53,1.6,44.7,7.08,65.47,16.02,40.62,17.5,48.92,73.02,42.36,107.63-2.61,13.79-9.18,22.72-10.44,34.11-1.2,10.84,3.68,22.36,13.31,33.5,9.32,10.79,23.52,21.65,37.58,31.46,19.86,13.82,36.63,23.59,52.74,27.4,7.04,1.67,13.99,2.59,21.03,3.07,9,.62,18.38.59,29.43-.19,17.26-1.21,37.79-6.36,58.07-12.71,14.85-4.65,29.67-10.56,44.61-15.44,22.6-7.38,46.01-12.07,69.66-11.23,4.14.15,8.28.48,12.39.98,27.55,3.41,54.17,15.12,74.89,33.79,20.7,18.65,35.1,44.46,38.25,71.28"/>
        <path class="cls-11" d="m-83.67,42.78c-.67-.11-1.34-.21-2-.3,8.77,15.41,34.23,28.07,59.93,32.4,20.79,3.5,41.65,3.07,61.35,2.79,4.68-.06,9.3-.12,13.83-.12,23.6-.03,45.55,3.05,66.97,10.71,44.09,15.75,53.62,72.83,43.51,109.66-4.03,14.69-12.39,24.84-14.85,37.84-2.35,12.39,1.97,25.67,11.32,38.2,9.03,12.11,23.1,23.87,37.64,33.67,20.57,13.82,39.49,22.5,57.84,25.21,8.02,1.18,15.95,1.54,23.89,1.37,10.15-.21,20.54-1.24,32.21-2.93,18.24-2.71,39-8.83,59.65-15.68,14.75-4.89,29.56-10.69,44.51-15.42,22.63-7.16,46.02-11.61,69.62-10.52,4.14.19,8.26.56,12.35,1.12,27.45,3.71,53.84,15.66,74.54,34.25,20.68,18.57,35.36,43.95,39.45,70.7"/>
        <path class="cls-30" d="m-82.41,44.57c-.85-.05-1.71-.1-2.55-.14,7.21,17.71,32.22,31.76,57.59,36.11,20.51,3.52,41.17,2.34,60.84.9,4.67-.34,9.29-.69,13.83-1.01,23.66-1.67,46.35-1.04,68.48,5.39,47.53,13.81,58.31,72.62,44.66,111.69-5.45,15.6-15.6,26.97-19.26,41.57-3.5,13.94.27,28.98,9.33,42.91,8.75,13.44,22.68,26.1,37.71,35.89,21.27,13.83,42.34,21.39,62.95,23.02,9,.68,17.92.49,26.76-.33,11.31-1.05,22.69-3.04,34.99-5.67,19.23-4.18,40.22-11.3,61.23-18.66,14.65-5.13,29.45-10.82,44.42-15.41,22.66-6.94,46.03-11.15,69.59-9.81,4.13.24,8.24.65,12.32,1.25,27.36,4.01,53.51,16.2,74.2,34.71,20.66,18.5,35.62,43.45,40.64,70.12"/>
        <path class="cls-34" d="m-81.16,46.37c-1.04,0-2.07,0-3.11.01,5.66,20.01,30.22,35.45,55.25,39.81,20.24,3.53,40.69,1.6,60.32-1,4.66-.61,9.28-1.27,13.83-1.9,23.73-3.31,47.1-5.18,69.98.07,50.92,11.7,63.01,72.41,45.81,113.72-6.87,16.49-18.78,29.11-23.67,45.29-4.63,15.51-1.41,32.28,7.34,47.61,8.49,14.76,22.26,28.33,37.77,38.11,21.97,13.83,45.19,20.32,68.05,20.83,9.98.2,19.9-.54,29.63-2.03,12.47-1.86,24.85-4.83,37.77-8.42,20.22-5.64,41.44-13.75,62.81-21.63,14.56-5.37,29.34-10.95,44.32-15.39,22.69-6.73,46.04-10.69,69.55-9.1,4.12.28,8.22.74,12.28,1.38,27.27,4.31,53.18,16.73,73.85,35.18,20.64,18.42,35.88,42.94,41.84,69.53"/>
        <path class="cls-13" d="m-79.91,48.24c-1.22.06-2.44.11-3.67.17,4.11,22.32,28.22,39.13,52.91,43.52,19.96,3.55,40.2.87,59.8-2.89,4.65-.89,9.27-1.84,13.83-2.79,23.79-4.95,47.79-9.37,71.48-5.24,54.24,9.44,67.67,72.17,46.95,115.74-8.31,17.38-22.01,31.23-28.07,49.02-5.79,17.06-3.12,35.6,5.35,52.31,8.19,16.09,21.84,30.56,37.84,40.33,22.67,13.84,48.04,19.25,73.15,18.64,10.96-.27,21.87-1.6,32.49-3.74,13.63-2.71,27-6.63,40.55-11.16,21.2-7.11,42.67-16.2,64.39-24.61,14.46-5.6,29.23-11.08,44.23-15.38,22.72-6.51,46.05-10.23,69.52-8.39,4.11.32,8.2.83,12.25,1.52,27.18,4.6,52.86,17.27,73.51,35.64,20.62,18.35,36.14,42.44,43.03,68.95"/>
        <path class="cls-14" d="m-78.66,50.11c-1.41.11-2.81.22-4.22.33,2.56,24.62,26.22,42.82,50.57,47.23,24.36,4.41,49.25-1.88,73.11-8.47,23.86-6.58,48.42-13.58,72.99-10.56,57.49,7.06,72.42,71.97,48.1,117.77-9.71,18.28-25.24,33.36-32.48,52.74-13.66,36.55,7.69,79.68,41.26,99.56,33.57,19.88,75.68,20.15,113.6,11.01,37.93-9.14,73.14-26.83,109.3-41.48,36.16-14.66,74.75-26.51,113.61-23.04,59.06,5.28,112.78,49.27,129.6,106.12"/>
        <path class="cls-10" d="m641.68,397.83c-10.78-30.63-32.59-56.48-59.79-74.07-21.98-14.21-47.53-23.06-74.1-24.76-6.35-.41-12.69-.44-19.02-.16-32.7,1.46-65.09,11.55-95.78,22.11-33.04,11.38-64.59,23.03-98.72,30.96-4.24.99-8.52,1.91-12.83,2.74-31.9,6.17-66.64,7.07-97.31-2.44-6.73-2.09-13.27-4.69-19.54-7.87-14.12-7.14-26.34-17.79-35.3-30.3-13.12-18.39-20.12-41.05-13.56-62.01,5.8-18.53,20.83-32.56,29.69-49.86,22.21-43.32,7.69-104.67-46.6-111.86-23.23-3.11-46.43,3.14-68.93,8.99-22.5,5.85-45.93,11.42-68.82,6.94-22.88-4.47-45.06-21.88-47.41-45.31,1.32-.12,2.64-.24,3.97-.37"/>
        <path class="cls-6" d="m646.57,394.34c-12.26-29.82-35.28-54-63.15-69.98-22.51-12.91-48.28-20.52-75.04-21.57-6.39-.25-12.78-.16-19.15.22-32.96,1.95-65.78,11.78-96.83,20.66-33.95,9.71-65.63,17.61-100.66,23.77-4.35.78-8.73,1.5-13.14,2.15-32.7,4.83-68.28,5.48-99.92-2.77-6.94-1.82-13.69-4.07-20.18-6.85-14.64-6.24-27.49-15.66-37.34-26.98-14.38-16.65-24.16-37.76-19.12-58.08,4.37-17.62,18.89-30.66,26.89-46.98,20.1-40.84,6-98.64-45.1-105.95-21.9-3.21-43.72,2.3-64.86,7.42-21.14,5.12-43.11,9.95-64.52,5.41-21.41-4.54-42.11-21.15-44.25-43.39,1.24-.14,2.47-.27,3.71-.41"/>
        <path class="cls-21" d="m651.46,390.85c-13.73-29-37.98-51.51-66.5-65.88-23.04-11.61-49.04-17.98-75.99-18.37-6.43-.09-12.86.12-19.29.59-33.23,2.43-66.48,11.99-97.87,19.2-34.88,8.02-66.67,12.19-102.6,16.59-4.45.56-8.93,1.08-13.46,1.56-33.5,3.5-69.93,3.88-102.53-3.1-7.15-1.54-14.1-3.44-20.82-5.82-15.17-5.33-28.67-13.5-39.38-23.65-15.68-14.87-28.23-34.31-24.68-54.15,2.97-16.62,16.95-28.76,24.1-44.09,17.99-38.36,4.28-92.47-43.6-100.04-20.57-3.26-41.02,1.45-60.8,5.85-19.78,4.38-40.29,8.49-60.23,3.89-19.93-4.6-39.16-20.43-41.09-41.47,1.15-.15,2.3-.3,3.46-.45"/>
        <path class="cls-17" d="m656.34,387.36c-15.2-28.18-40.67-49.03-69.85-61.79-23.57-10.31-49.8-15.44-76.93-15.17-6.48.06-12.95.41-19.43.97-33.49,2.91-67.2,12.17-98.92,17.75-35.84,6.3-67.7,6.77-104.54,9.4-4.55.34-9.14.67-13.77.96-34.3,2.17-71.57,2.29-105.13-3.43-7.35-1.26-14.52-2.82-21.46-4.8-15.69-4.42-29.82-11.35-41.42-20.33-16.94-13.12-28.8-30.62-30.25-50.21,4.38-15,15-26.86,21.3-41.21,15.88-35.88,2.58-86.39-42.1-94.14-19.24-3.34-38.32.61-56.74,4.28-18.43,3.65-37.47,7.03-55.93,2.36-18.46-4.67-36.21-19.7-37.93-39.56,1.07-.16,2.13-.32,3.2-.48"/>
        <path class="cls-5" d="m661.23,383.88c-16.68-27.36-43.36-46.55-73.21-57.7-24.1-9.01-50.56-12.9-77.87-11.98-6.52.22-13.04.69-19.56,1.34-33.76,3.4-67.93,12.33-99.97,16.29-36.81,4.56-68.74,1.26-106.47,2.22-4.65.12-9.35.25-14.09.37-35.1.84-73.22.7-107.74-3.76-7.56-.99-14.93-2.2-22.09-3.77-16.21-3.51-30.97-9.21-43.46-17.01-18.2-11.37-31.96-27.22-35.81-46.28,3.66-13.9,13.06-24.96,18.51-38.32,13.78-33.4.87-80.31-40.6-88.23-17.91-3.42-35.62-.23-52.67,2.71-17.07,2.92-34.65,5.57-51.63.83-16.98-4.73-33.26-18.98-34.77-37.64.98-.17,1.96-.35,2.95-.52"/>
        <path class="cls-29" d="m666.12,380.39c-18.15-26.55-46.06-44.06-76.56-53.61-24.64-7.71-51.32-10.36-78.81-8.78-6.56.38-13.13.97-19.7,1.72-34.02,3.88-68.68,12.45-101.02,14.84-37.79,2.78-69.78-4.16-108.41-4.97-4.76-.1-9.56-.16-14.41-.23-35.9-.49-74.86-.9-110.35-4.08-7.76-.71-15.34-1.57-22.73-2.75-16.73-2.6-32.12-7.08-45.49-13.69-19.46-9.62-35.13-23.83-41.37-42.35,2.94-12.81,11.08-23.07,15.72-35.44,11.59-30.95-.83-74.24-39.1-82.32-16.58-3.5-32.91-1.07-48.61,1.14-15.71,2.19-31.83,4.11-47.34-.69-15.51-4.8-30.31-18.25-31.61-35.72.9-.19,1.79-.38,2.69-.56"/>
        <path class="cls-22" d="m671.01,376.9c-19.63-25.73-48.75-41.58-79.91-49.51-25.17-6.41-52.08-7.82-79.75-5.59-6.6.53-13.22,1.25-19.83,2.09-34.28,4.37-69.43,12.56-102.07,13.38-38.77.98-70.81-9.59-110.35-12.15-4.86-.32-9.77-.58-14.72-.82-36.71-1.82-76.51-2.49-112.96-4.41-7.97-.43-15.76-.95-23.37-1.73-17.26-1.7-33.27-4.94-47.53-10.37-20.71-7.88-38.3-20.44-46.94-38.42,2.23-11.71,9.14-21.17,12.92-32.55,9.47-28.47-2.54-68.17-37.59-76.41-15.25-3.59-30.21-1.91-44.55-.43-14.35,1.45-29.01,2.65-43.04-2.22-14.03-4.86-27.36-17.52-28.44-33.81.81-.2,1.62-.4,2.44-.6"/>
        <path class="cls-27" d="m675.9,373.41c-21.1-24.91-51.44-39.1-83.27-45.42-25.7-5.11-52.83-5.28-80.7-2.39-6.65.69-13.3,1.53-19.97,2.47-34.55,4.85-70.17,12.63-103.12,11.93-39.76-.85-71.84-15.01-112.28-19.34-4.96-.53-9.97-.99-15.04-1.41-37.51-3.15-78.15-4.09-115.57-4.74-8.17-.16-16.17-.33-24.01-.7-17.78-.79-34.42-2.81-49.57-7.05-21.96-6.14-41.47-17.04-52.5-34.49,1.51-10.61,7.19-19.27,10.13-29.67,7.35-25.99-4.25-62.1-36.09-70.5-13.92-3.67-27.51-2.75-40.49-2-12.99.72-26.19,1.19-38.75-3.74-12.56-4.92-24.41-16.8-25.28-31.89.73-.21,1.45-.43,2.18-.64"/>
        <path class="cls-7" d="m680.79,369.92c-22.58-24.09-54.13-36.62-86.62-41.33-26.23-3.81-53.59-2.74-81.64.81-6.69.85-13.39,1.82-20.11,2.84-34.81,5.33-70.92,12.69-104.16,10.47-40.74-2.72-72.89-20.35-114.22-26.53-5.06-.74-10.18-1.4-15.35-2.01-38.31-4.48-79.8-5.68-118.18-5.07-8.38.12-16.59.3-24.65.32-18.3.12-35.56-.68-51.61-3.73-23.22-4.41-44.64-13.65-58.06-30.56.79-9.52,5.24-17.37,7.33-26.78,5.23-23.5-5.96-56.04-34.59-64.59-12.59-3.76-24.81-3.59-36.42-3.57-11.63-.01-23.37-.27-34.45-5.27-11.08-4.99-21.46-16.07-22.12-29.97.64-.23,1.28-.45,1.93-.68"/>
        <path class="cls-28" d="m685.68,366.43c-24.05-23.28-56.83-34.13-89.97-37.23-26.77-2.51-54.35-.2-82.58,4-6.73,1-13.48,2.1-20.24,3.22-35.07,5.82-71.66,12.72-105.21,9.01-41.71-4.6-73.93-25.77-116.16-33.71-5.17-.95-10.39-1.82-15.67-2.6-39.11-5.82-81.45-7.27-120.79-5.4-8.58.4-17,.92-25.28,1.35-18.82,1.03-36.71,1.45-53.65-.4-24.47-2.68-47.81-10.25-63.63-26.63.08-8.42,3.29-15.47,4.54-23.9,3.11-21.02-7.68-49.99-33.09-58.69-11.26-3.85-22.11-4.43-32.36-5.14-10.27-.75-20.54-1.73-30.16-6.8-9.61-5.05-18.5-15.34-18.96-28.05.56-.24,1.11-.48,1.67-.72"/>
        <path class="cls-3" d="m690.57,362.94c-25.53-22.46-59.52-31.65-93.32-33.14-27.3-1.21-55.11,2.34-83.52,7.2-6.78,1.16-13.57,2.38-20.38,3.6-35.34,6.3-72.39,12.73-106.26,7.56-42.68-6.52-74.96-31.19-118.09-40.9-5.27-1.17-10.6-2.23-15.98-3.2-39.91-7.15-83.09-8.87-123.4-5.73-8.79.68-17.42,1.54-25.92,2.37-19.35,1.94-37.85,3.58-55.69,2.92-25.72-.95-50.97-6.86-69.19-22.7-.64-7.32,1.34-13.56,1.74-21.02.99-18.53-9.39-43.95-31.59-52.78-9.93-3.95-19.41-5.25-28.3-6.71-8.92-1.46-17.72-3.19-25.86-8.32-8.14-5.12-15.55-14.62-15.8-26.14.47-.25.94-.51,1.42-.76"/>
        <path class="cls-12" d="m695.46,359.45c-27-21.64-62.21-29.17-96.68-29.05-27.83.09-55.87,4.88-84.47,10.4-6.82,1.32-13.66,2.66-20.52,3.97-35.6,6.79-73.11,12.73-107.31,6.1-43.64-8.46-76-36.61-120.03-48.08-5.37-1.38-10.81-2.65-16.3-3.79-40.72-8.48-84.74-10.46-126.01-6.06-8.99.95-17.83,2.16-26.56,3.4-19.87,2.84-39,5.66-57.73,6.24-26.98.72-54.14-3.46-74.75-18.76-1.36-6.23-.6-11.65-1.05-18.13-1.12-16.03-11.1-37.93-30.09-46.87-8.61-4.05-16.71-6.09-24.24-8.28-7.56-2.19-14.9-4.65-21.56-9.85-6.66-5.18-12.6-13.89-12.64-24.22.39-.27.77-.53,1.17-.8"/>
        <path class="cls-15" d="m700.35,355.15c-28.47-20.82-64.91-26.68-100.03-24.96-28.36,1.39-56.63,7.42-85.41,13.59-6.86,1.47-13.74,2.95-20.65,4.35-35.86,7.27-73.83,12.72-108.36,4.65-44.58-10.41-77.04-42.04-121.97-55.27-5.47-1.6-11.02-3.06-16.62-4.38-41.52-9.81-86.38-12.05-128.61-6.38-9.2,1.23-18.25,2.79-27.2,4.42-20.39,3.75-40.15,7.79-59.76,9.56-28.24,2.46-57.31-.07-80.31-14.83-2.08-5.13-2.54-9.75-3.85-15.25-3.21-13.53-12.81-31.93-28.59-40.96-7.28-4.17-14.01-6.94-20.17-9.85-6.2-2.93-12.08-6.11-17.27-11.38-5.19-5.25-9.65-13.17-9.48-22.3.3-.28.6-.56.91-.84"/>
        <path class="cls-24" d="m705.26,347.95c-29.95-20.01-67.6-24.2-103.38-20.86-28.9,2.69-57.39,9.96-86.35,16.79-6.91,1.63-13.83,3.23-20.79,4.72-36.13,7.75-74.53,12.69-109.4,3.19-45.5-12.39-78.08-47.46-123.91-62.45-5.58-1.82-11.22-3.48-16.93-4.98-42.32-11.14-88.03-13.65-131.22-6.71-9.4,1.51-18.66,3.41-27.83,5.45-20.91,4.66-41.31,9.93-61.8,12.88-29.5,4.2-60.48,3.33-85.88-10.9-2.79-4.04-4.47-7.84-6.64-12.36-5.29-11.03-14.5-25.96-27.09-35.05-5.94-4.29-11.31-7.78-16.11-11.42-4.85-3.67-9.26-7.57-12.97-12.9-3.71-5.31-6.7-12.44-6.31-20.38.22-.29.43-.58.66-.88"/>
        <path class="cls-20" d="m710.2,340.71c-31.42-19.19-70.29-21.72-106.74-16.77-29.43,3.99-58.14,12.5-87.29,19.99-6.95,1.79-13.92,3.51-20.93,5.1-36.39,8.24-75.22,12.65-110.45,1.74-46.41-14.38-79.11-52.88-125.84-69.64-5.68-2.03-11.43-3.89-17.25-5.57-43.12-12.47-89.67-15.24-133.83-7.04-9.61,1.78-19.08,4.03-28.47,6.47-21.44,5.57-42.46,12.06-63.84,16.2-30.76,5.93-65.48,9.94-91.44-6.97-3.84-2.5-6.4-5.94-9.44-9.48-7.36-8.56-16.16-20.02-25.59-29.14-4.59-4.44-8.59-8.64-12.05-12.99-3.48-4.41-6.44-9.03-8.68-14.43-2.24-5.37-3.75-11.71-3.15-18.47.13-.31.26-.61.4-.92"/>
        <path class="cls-23" d="m715.32,333.45c-32.9-18.37-72.98-19.23-110.09-12.68-37.1,6.56-72.64,19.93-109.3,28.65-36.66,8.72-75.9,12.61-111.5.28-47.31-16.38-80.15-58.3-127.78-76.83-48.66-18.92-102.79-24.28-154-13.54-32.23,6.76-62.96,19.35-94.99,27.02-32.02,7.67-66.82,10.12-97-3.04-30.19-13.16-53.8-45.34-48.53-77.85"/>
      </g>
    </g>
  </g>
</svg>