<?xml version="1.0" encoding="UTF-8"?>
<svg id="Layer_2" data-name="Layer 2" xmlns="http://www.w3.org/2000/svg" viewBox="0 0 270.95 69">
  <defs>
    <style>
      .cls-1 {
        fill: #0f172a;
      }

      .cls-2 {
        fill: #6fb8e6;
      }
    </style>
  </defs>
  <g id="Layer_1-2" data-name="Layer 1">
    <g>
      <path class="cls-1" d="m10.31,10v31.84c0,3.49.91,6.15,2.73,8s4.37,2.76,7.67,2.76,5.92-.92,7.74-2.76,2.73-4.51,2.73-8V10h10.39v31.76c0,4.38-.95,8.07-2.84,11.09-1.89,3.02-4.42,5.29-7.59,6.82-3.17,1.53-6.69,2.29-10.58,2.29s-7.31-.76-10.43-2.29c-3.12-1.53-5.59-3.8-7.41-6.82-1.82-3.02-2.73-6.72-2.73-11.09V10h10.32,0Zm41.9,4.01c-1.2-1.15-1.81-2.59-1.81-4.31s.6-3.15,1.81-4.31c1.2-1.15,2.72-1.73,4.53-1.73s3.33.58,4.53,1.73c1.2,1.15,1.81,2.59,1.81,4.31s-.6,3.16-1.81,4.31-2.72,1.73-4.53,1.73-3.33-.58-4.53-1.73Z"/>
      <path class="cls-2" d="m67.33,59.71c-1.2-1.15-1.81-2.59-1.81-4.31s.6-3.15,1.81-4.31c1.2-1.15,2.72-1.73,4.53-1.73s3.33.58,4.53,1.73c1.2,1.15,1.81,2.59,1.81,4.31s-.6,3.16-1.81,4.31-2.72,1.73-4.53,1.73-3.33-.58-4.53-1.73Z"/>
      <path class="cls-1" d="m51.51,20.62h10.32v40.83h-10.32V20.62Z"/>
    </g>
    <path class="cls-1" d="m91.28,32.33h11.49v3.48h-15.77V3.01h4.28v29.32Zm14.44-9.51c0-2.64.53-4.94,1.6-6.92,1.07-2.01,2.53-3.56,4.38-4.66,1.88-1.1,3.97-1.65,6.26-1.65s4.22.49,5.89,1.46c1.66.97,2.9,2.2,3.72,3.67v-4.7h4.33v25.79h-4.33v-4.8c-.85,1.51-2.12,2.76-3.81,3.76-1.66.97-3.61,1.46-5.84,1.46-2.29,0-4.36-.56-6.22-1.69-1.85-1.13-3.31-2.71-4.38-4.75-1.07-2.04-1.6-4.36-1.6-6.96m21.85.05c0-1.95-.39-3.64-1.18-5.08-.79-1.44-1.85-2.54-3.2-3.3-1.32-.78-2.78-1.18-4.38-1.18s-3.06.38-4.38,1.13c-1.32.75-2.37,1.85-3.15,3.29-.78,1.44-1.18,3.14-1.18,5.08s.39,3.7,1.18,5.18c.78,1.44,1.84,2.56,3.16,3.34,1.32.75,2.78,1.13,4.38,1.13s3.06-.38,4.38-1.13c1.35-.78,2.42-1.9,3.2-3.34.78-1.47,1.18-3.18,1.18-5.13m24.15-13.32c3.14,0,5.68.96,7.63,2.87,1.95,1.88,2.92,4.61,2.92,8.19v15.2h-4.24v-14.59c0-2.57-.64-4.53-1.93-5.88-1.29-1.38-3.05-2.07-5.28-2.07-2.26,0-4.07.71-5.42,2.12-1.32,1.41-1.98,3.47-1.98,6.16v14.26h-4.28V10.02h4.28v3.67c.85-1.32,1.99-2.34,3.44-3.06,1.48-.72,3.09-1.08,4.85-1.08m15.95,13.27c0-2.64.53-4.94,1.6-6.92,1.07-2.01,2.53-3.56,4.38-4.66,1.88-1.1,3.99-1.65,6.31-1.65,2.01,0,3.88.47,5.6,1.41,1.73.91,3.04,2.12,3.96,3.62V.99h4.33v34.82h-4.33v-4.85c-.85,1.54-2.1,2.81-3.77,3.81-1.66.97-3.61,1.46-5.84,1.46-2.29,0-4.38-.56-6.26-1.69-1.85-1.13-3.31-2.71-4.38-4.75-1.07-2.04-1.6-4.36-1.6-6.96m21.85.05c0-1.95-.39-3.64-1.18-5.08-.78-1.44-1.85-2.54-3.2-3.3-1.32-.78-2.78-1.18-4.38-1.18s-3.06.38-4.38,1.13c-1.32.75-2.37,1.85-3.15,3.29s-1.18,3.14-1.18,5.08.39,3.7,1.18,5.18c.78,1.44,1.84,2.56,3.15,3.34,1.32.75,2.78,1.13,4.38,1.13s3.06-.38,4.38-1.13c1.35-.78,2.42-1.9,3.2-3.34.78-1.47,1.18-3.18,1.18-5.13m13.79-17.03c-.82,0-1.51-.28-2.07-.85-.56-.57-.85-1.26-.85-2.07,0-.82.28-1.51.85-2.07.57-.56,1.26-.85,2.07-.85s1.44.28,1.98.85c.57.57.85,1.26.85,2.07,0,.82-.28,1.51-.85,2.07-.51.55-1.23.86-1.98.85m2.07,4.19v25.79h-4.29V10.02h4.29Zm19.88-.47c3.14,0,5.68.96,7.63,2.87,1.95,1.88,2.92,4.61,2.92,8.19v15.2h-4.24v-14.59c0-2.57-.64-4.53-1.93-5.88-1.29-1.38-3.04-2.07-5.27-2.07-2.26,0-4.07.71-5.41,2.12-1.32,1.41-1.98,3.47-1.98,6.16v14.26h-4.29V10.02h4.29v3.67c.85-1.32,1.99-2.34,3.44-3.06,1.48-.72,3.09-1.08,4.85-1.08m28.19.05c2.23,0,4.18.49,5.84,1.46,1.7.97,2.95,2.2,3.77,3.67v-4.7h4.33v26.35c0,2.35-.5,4.44-1.51,6.26-1,1.85-2.45,3.29-4.33,4.33-1.85,1.04-4.02,1.55-6.5,1.55-3.39,0-6.22-.8-8.48-2.4s-3.59-3.78-4-6.54h4.24c.47,1.57,1.44,2.82,2.92,3.76,1.48.97,3.25,1.46,5.32,1.46,2.35,0,4.27-.74,5.74-2.21,1.51-1.47,2.26-3.54,2.26-6.21v-5.41c-.85,1.51-2.1,2.76-3.77,3.77s-3.61,1.51-5.84,1.51-4.38-.56-6.26-1.69c-1.85-1.13-3.31-2.71-4.38-4.75-1.07-2.04-1.6-4.36-1.6-6.96,0-2.64.53-4.94,1.6-6.92,1.07-2.01,2.53-3.56,4.38-4.66,1.88-1.1,3.97-1.65,6.26-1.65m9.61,13.27c0-1.95-.39-3.64-1.18-5.08-.78-1.44-1.85-2.54-3.2-3.3-1.32-.78-2.78-1.18-4.38-1.18s-3.06.38-4.38,1.13c-1.32.75-2.37,1.85-3.15,3.29-.79,1.44-1.18,3.14-1.18,5.08s.39,3.7,1.18,5.18c.78,1.44,1.84,2.56,3.15,3.34,1.32.75,2.78,1.13,4.38,1.13s3.06-.38,4.38-1.13c1.35-.78,2.42-1.9,3.2-3.34.78-1.47,1.18-3.18,1.18-5.13m-161.37,28.18c0,1.36-.47,2.5-1.41,3.41-.93.89-2.35,1.34-4.26,1.34h-3.16v6.85h-2.14v-16.4h5.3c1.85,0,3.26.45,4.22,1.34.97.89,1.46,2.05,1.46,3.46m-5.68,2.99c1.19,0,2.07-.26,2.64-.78.57-.52.85-1.26.85-2.21,0-2.02-1.16-3.03-3.48-3.03h-3.16v6.02h3.16Zm7.54,2.12c0-1.32.27-2.47.8-3.46.53-1,1.26-1.78,2.19-2.33.94-.55,1.99-.82,3.13-.82,1.13,0,2.11.24,2.94.73.83.49,1.45,1.1,1.86,1.83v-2.35h2.17v12.89h-2.17v-2.4c-.42.75-1.06,1.38-1.91,1.88-.83.49-1.81.73-2.92.73-1.15,0-2.18-.28-3.11-.85s-1.66-1.36-2.19-2.38c-.53-1.02-.8-2.18-.8-3.48m10.93.02c0-.97-.2-1.82-.59-2.54-.39-.72-.93-1.27-1.6-1.65-.66-.39-1.42-.6-2.19-.59-.8,0-1.53.19-2.19.56-.66.38-1.19.93-1.58,1.65-.39.72-.59,1.57-.59,2.54s.2,1.85.59,2.59c.39.72.92,1.28,1.58,1.67.66.38,1.39.56,2.19.56s1.53-.19,2.19-.56c.68-.4,1.23-.97,1.6-1.67.39-.74.59-1.59.59-2.56m11.11-6.63c1.11,0,2.09.24,2.92.73.85.49,1.47,1.1,1.88,1.83v-2.35h2.17v13.18c0,1.18-.25,2.22-.75,3.13-.49.92-1.25,1.67-2.17,2.17-.93.52-2.01.78-3.25.78-1.69,0-3.11-.4-4.24-1.2-1.13-.8-1.8-1.89-2-3.27h2.12c.23.78.72,1.41,1.46,1.88.74.49,1.62.73,2.66.73,1.18,0,2.13-.37,2.87-1.11.75-.74,1.13-1.77,1.13-3.1v-2.71c-.42.75-1.05,1.38-1.88,1.88-.83.5-1.81.75-2.92.75-1.15,0-2.19-.28-3.13-.85-.93-.57-1.66-1.36-2.19-2.38-.53-1.02-.8-2.18-.8-3.48s.27-2.47.8-3.46c.53-1,1.26-1.78,2.19-2.33.94-.55,1.99-.82,3.13-.82m4.8,6.63c0-.97-.2-1.82-.59-2.54-.39-.72-.93-1.27-1.6-1.65-.66-.39-1.42-.6-2.19-.59-.8,0-1.53.19-2.19.56-.66.38-1.18.93-1.58,1.65-.39.72-.59,1.57-.59,2.54,0,.99.2,1.85.59,2.59.39.72.92,1.28,1.58,1.67.66.38,1.39.56,2.19.56s1.53-.19,2.19-.56c.68-.4,1.23-.97,1.6-1.67.39-.74.59-1.59.59-2.56m17.56-.47c0,.41-.02.84-.07,1.29h-10.31c.08,1.27.51,2.27,1.29,2.99.8.71,1.77,1.06,2.9,1.06.93,0,1.7-.21,2.31-.63.62-.42,1.08-1.03,1.32-1.74h2.31c-.33,1.22-1.06,2.29-2.07,3.03-1.04.77-2.32,1.15-3.86,1.15-1.22,0-2.32-.27-3.3-.82-.96-.55-1.74-1.36-2.26-2.33-.55-1.02-.82-2.2-.82-3.53s.27-2.5.8-3.51c.53-1,1.28-1.77,2.24-2.31.97-.55,2.09-.82,3.34-.82,1.22,0,2.31.27,3.25.8.92.51,1.67,1.28,2.17,2.21.52.93.78,1.98.78,3.15m-2.21-.45c0-.81-.18-1.51-.54-2.09-.35-.59-.87-1.05-1.48-1.34-.61-.31-1.29-.47-2.05-.47-1.08,0-2.01.35-2.78,1.03-.75.69-1.18,1.65-1.29,2.87h8.15Zm13.41-9.01v10.38c0,1.46.35,2.54,1.06,3.25.72.71,1.72,1.06,2.99,1.06,1.26,0,2.24-.35,2.94-1.06.72-.71,1.08-1.79,1.08-3.25v-10.38h2.14v10.35c0,1.36-.28,2.52-.82,3.46-.52.9-1.3,1.62-2.24,2.07-.93.46-1.97.68-3.13.68s-2.21-.23-3.15-.68c-.93-.46-1.66-1.15-2.21-2.07-.53-.94-.8-2.1-.8-3.46v-10.35h2.14Zm15.93,0v16.4h-2.14v-16.4h2.14Zm8.74,10.15c0-1.02.82-1.84,1.84-1.84h83.51c1.02.02,1.82.87,1.8,1.88-.02.98-.81,1.77-1.8,1.8h-83.51c-1.02,0-1.84-.82-1.84-1.84"/>
  </g>
</svg>